<svg width="593" height="114" viewBox="0 0 593 114" fill="none" xmlns="http://www.w3.org/2000/svg">
<path d="M19.7778 81.7907H15C9.47716 81.7907 5 77.3135 5 71.7907V48.5581C5 43.0353 9.47715 38.5581 15 38.5581H22.1429C27.6657 38.5581 32.1429 34.081 32.1429 28.5581V15C32.1429 9.47715 36.62 5 42.1429 5H62.8571C68.38 5 72.8571 9.47715 72.8571 15V47C72.8571 52.5228 68.38 57 62.8571 57H47.2698C41.747 57 37.2698 61.4772 37.2698 67V99C37.2698 104.523 41.747 109 47.2698 109H62.8571C68.38 109 72.8571 104.523 72.8571 99V91.7907C72.8571 86.2679 77.3343 81.7907 82.8571 81.7907H90C95.5229 81.7907 100 77.3135 100 71.7907V52.6895C100 47.1667 95.5229 42.6895 90 42.6895H85.8254" stroke="#004DFF" stroke-width="10"/>
<path d="M153.744 78.768C151.44 78.768 149.605 78.384 148.24 77.616C146.875 76.848 145.893 75.7387 145.296 74.288C144.699 72.8373 144.4 71.088 144.4 69.04V50.928H139.152V44.272H144.656L146.256 34.672H152.72V44.272H160.208V50.928H152.72V68.336C152.72 69.5733 152.976 70.512 153.488 71.152C154.043 71.792 155.045 72.112 156.496 72.112H160.208V77.68C159.696 77.8933 159.056 78.064 158.288 78.192C157.52 78.3627 156.731 78.4907 155.92 78.576C155.109 78.704 154.384 78.768 153.744 78.768ZM183.878 78.768C179.91 78.768 176.539 78.1493 173.766 76.912C171.035 75.632 168.944 73.6907 167.494 71.088C166.043 68.4853 165.318 65.1787 165.318 61.168C165.318 57.1573 166.022 53.8507 167.43 51.248C168.88 48.6453 170.971 46.704 173.702 45.424C176.475 44.144 179.824 43.504 183.75 43.504C187.59 43.504 190.811 44.144 193.414 45.424C196.059 46.6613 198.043 48.5387 199.366 51.056C200.688 53.5733 201.35 56.7307 201.35 60.528V63.216H173.958C174.043 65.3067 174.47 67.0347 175.238 68.4C176.048 69.7227 177.179 70.704 178.63 71.344C180.123 71.9413 181.936 72.24 184.07 72.24C185.008 72.24 185.99 72.1333 187.014 71.92C188.038 71.664 188.976 71.3013 189.83 70.832C190.683 70.3627 191.387 69.744 191.942 68.976C192.539 68.208 192.859 67.312 192.902 66.288H201.222C201.222 68.208 200.816 69.936 200.006 71.472C199.195 73.008 198.022 74.3307 196.486 75.44C194.992 76.5067 193.179 77.3387 191.046 77.936C188.912 78.4907 186.523 78.768 183.878 78.768ZM174.022 57.52H192.646C192.646 56.1973 192.411 55.0667 191.942 54.128C191.515 53.1893 190.896 52.4213 190.086 51.824C189.275 51.184 188.336 50.736 187.27 50.48C186.203 50.1813 185.051 50.032 183.814 50.032C181.894 50.032 180.23 50.3093 178.822 50.864C177.414 51.4187 176.304 52.2507 175.494 53.36C174.726 54.4693 174.235 55.856 174.022 57.52ZM208.602 78V31.664H216.922V78H208.602ZM242.69 78.768C238.722 78.768 235.351 78.1493 232.578 76.912C229.847 75.632 227.757 73.6907 226.306 71.088C224.855 68.4853 224.13 65.1787 224.13 61.168C224.13 57.1573 224.834 53.8507 226.242 51.248C227.693 48.6453 229.783 46.704 232.514 45.424C235.287 44.144 238.637 43.504 242.562 43.504C246.402 43.504 249.623 44.144 252.226 45.424C254.871 46.6613 256.855 48.5387 258.178 51.056C259.501 53.5733 260.162 56.7307 260.162 60.528V63.216H232.77C232.855 65.3067 233.282 67.0347 234.05 68.4C234.861 69.7227 235.991 70.704 237.442 71.344C238.935 71.9413 240.749 72.24 242.882 72.24C243.821 72.24 244.802 72.1333 245.826 71.92C246.85 71.664 247.789 71.3013 248.642 70.832C249.495 70.3627 250.199 69.744 250.754 68.976C251.351 68.208 251.671 67.312 251.714 66.288H260.034C260.034 68.208 259.629 69.936 258.818 71.472C258.007 73.008 256.834 74.3307 255.298 75.44C253.805 76.5067 251.991 77.3387 249.858 77.936C247.725 78.4907 245.335 78.768 242.69 78.768ZM232.834 57.52H251.458C251.458 56.1973 251.223 55.0667 250.754 54.128C250.327 53.1893 249.709 52.4213 248.898 51.824C248.087 51.184 247.149 50.736 246.082 50.48C245.015 50.1813 243.863 50.032 242.626 50.032C240.706 50.032 239.042 50.3093 237.634 50.864C236.226 51.4187 235.117 52.2507 234.306 53.36C233.538 54.4693 233.047 55.856 232.834 57.52ZM268.631 78V34.032H277.655V51.632H302.807V34.032H311.831V78H302.807V59.504H277.655V78H268.631ZM338.815 78.768C334.847 78.768 331.476 78.1493 328.703 76.912C325.972 75.632 323.882 73.6907 322.431 71.088C320.98 68.4853 320.255 65.1787 320.255 61.168C320.255 57.1573 320.959 53.8507 322.367 51.248C323.818 48.6453 325.908 46.704 328.639 45.424C331.412 44.144 334.762 43.504 338.687 43.504C342.527 43.504 345.748 44.144 348.351 45.424C350.996 46.6613 352.98 48.5387 354.303 51.056C355.626 53.5733 356.287 56.7307 356.287 60.528V63.216H328.895C328.98 65.3067 329.407 67.0347 330.175 68.4C330.986 69.7227 332.116 70.704 333.567 71.344C335.06 71.9413 336.874 72.24 339.007 72.24C339.946 72.24 340.927 72.1333 341.951 71.92C342.975 71.664 343.914 71.3013 344.767 70.832C345.62 70.3627 346.324 69.744 346.879 68.976C347.476 68.208 347.796 67.312 347.839 66.288H356.159C356.159 68.208 355.754 69.936 354.943 71.472C354.132 73.008 352.959 74.3307 351.423 75.44C349.93 76.5067 348.116 77.3387 345.983 77.936C343.85 78.4907 341.46 78.768 338.815 78.768ZM328.959 57.52H347.583C347.583 56.1973 347.348 55.0667 346.879 54.128C346.452 53.1893 345.834 52.4213 345.023 51.824C344.212 51.184 343.274 50.736 342.207 50.48C341.14 50.1813 339.988 50.032 338.751 50.032C336.831 50.032 335.167 50.3093 333.759 50.864C332.351 51.4187 331.242 52.2507 330.431 53.36C329.663 54.4693 329.172 55.856 328.959 57.52ZM374.228 78.768C372.777 78.768 371.305 78.6187 369.812 78.32C368.361 78.064 367.017 77.5947 365.78 76.912C364.585 76.1867 363.625 75.2053 362.9 73.968C362.174 72.688 361.812 71.0453 361.812 69.04C361.812 66.5227 362.43 64.5173 363.668 63.024C364.948 61.488 366.718 60.336 368.98 59.568C371.284 58.7573 373.993 58.224 377.108 57.968C380.222 57.712 383.614 57.584 387.284 57.584V55.472C387.284 54.2773 387.028 53.2747 386.516 52.464C386.046 51.6533 385.236 51.056 384.084 50.672C382.974 50.2453 381.417 50.032 379.412 50.032C377.662 50.032 376.19 50.2027 374.996 50.544C373.844 50.8427 372.969 51.2693 372.372 51.824C371.817 52.336 371.54 52.9333 371.54 53.616V54.448H363.348C363.305 54.2347 363.284 54.0427 363.284 53.872C363.284 53.6587 363.284 53.424 363.284 53.168C363.284 51.2053 363.924 49.4987 365.204 48.048C366.526 46.5973 368.404 45.488 370.836 44.72C373.31 43.9093 376.276 43.504 379.732 43.504C383.273 43.504 386.217 43.9093 388.564 44.72C390.91 45.488 392.66 46.6827 393.812 48.304C395.006 49.9253 395.604 52.016 395.604 54.576V69.744C395.604 70.5547 395.796 71.152 396.18 71.536C396.606 71.92 397.161 72.112 397.844 72.112H400.468V77.68C400.041 77.8507 399.337 78.064 398.356 78.32C397.417 78.576 396.308 78.704 395.028 78.704C393.534 78.704 392.297 78.4907 391.316 78.064C390.377 77.68 389.63 77.1253 389.076 76.4C388.564 75.632 388.201 74.7573 387.988 73.776H387.54C386.601 74.8 385.449 75.696 384.084 76.464C382.761 77.1893 381.268 77.744 379.604 78.128C377.982 78.5547 376.19 78.768 374.228 78.768ZM376.532 72.112C377.854 72.112 379.156 71.9413 380.436 71.6C381.716 71.2587 382.868 70.7893 383.892 70.192C384.916 69.552 385.726 68.7627 386.324 67.824C386.964 66.8853 387.284 65.84 387.284 64.688V63.088C383.742 63.088 380.692 63.2373 378.132 63.536C375.572 63.8347 373.609 64.3893 372.244 65.2C370.878 65.968 370.196 67.0773 370.196 68.528C370.196 69.3813 370.473 70.0853 371.028 70.64C371.582 71.152 372.329 71.536 373.268 71.792C374.249 72.0053 375.337 72.112 376.532 72.112ZM405.04 78V31.664H413.36V78H405.04ZM433.432 78.768C431.128 78.768 429.293 78.384 427.928 77.616C426.562 76.848 425.581 75.7387 424.984 74.288C424.386 72.8373 424.088 71.088 424.088 69.04V50.928H418.84V44.272H424.344L425.944 34.672H432.408V44.272H439.896V50.928H432.408V68.336C432.408 69.5733 432.664 70.512 433.176 71.152C433.73 71.792 434.733 72.112 436.184 72.112H439.896V77.68C439.384 77.8933 438.744 78.064 437.976 78.192C437.208 78.3627 436.418 78.4907 435.608 78.576C434.797 78.704 434.072 78.768 433.432 78.768ZM446.477 78V31.664H454.797V48.56H455.245C456.226 47.408 457.336 46.4693 458.573 45.744C459.81 44.976 461.133 44.4213 462.541 44.08C463.992 43.696 465.485 43.504 467.021 43.504C469.666 43.504 471.928 43.952 473.805 44.848C475.682 45.7013 477.112 47.0667 478.093 48.944C479.117 50.7787 479.629 53.1893 479.629 56.176V78H471.309V57.648C471.309 56.3253 471.138 55.216 470.797 54.32C470.456 53.424 469.965 52.72 469.325 52.208C468.685 51.6533 467.896 51.2693 466.957 51.056C466.061 50.8 465.058 50.672 463.949 50.672C462.328 50.672 460.813 51.0347 459.405 51.76C458.04 52.4853 456.93 53.488 456.077 54.768C455.224 56.048 454.797 57.5413 454.797 59.248V78H446.477ZM508.198 78.768C505.339 78.768 502.63 78.5333 500.07 78.064C497.51 77.5947 495.249 76.8267 493.286 75.76C491.366 74.6507 489.851 73.2 488.742 71.408C487.633 69.616 487.078 67.4187 487.078 64.816C487.078 64.6453 487.078 64.4747 487.078 64.304C487.121 64.0907 487.142 63.92 487.142 63.792H496.166C496.123 63.92 496.081 64.112 496.038 64.368C496.038 64.5813 496.038 64.816 496.038 65.072C496.038 66.4373 496.529 67.5893 497.51 68.528C498.491 69.424 499.899 70.1067 501.734 70.576C503.569 71.0027 505.723 71.216 508.198 71.216C509.521 71.216 510.758 71.152 511.91 71.024C513.105 70.896 514.193 70.704 515.174 70.448C516.155 70.1493 516.987 69.808 517.67 69.424C518.395 68.9973 518.95 68.5067 519.334 67.952C519.718 67.3547 519.91 66.7147 519.91 66.032C519.91 64.8373 519.462 63.8773 518.566 63.152C517.713 62.4267 516.518 61.8293 514.982 61.36C513.489 60.848 511.803 60.4 509.926 60.016C508.049 59.632 506.107 59.248 504.102 58.864C502.097 58.4373 500.134 57.904 498.214 57.264C496.337 56.624 494.651 55.8347 493.158 54.896C491.665 53.9147 490.47 52.6773 489.574 51.184C488.678 49.6907 488.23 47.8773 488.23 45.744C488.23 43.696 488.699 41.904 489.638 40.368C490.577 38.7893 491.921 37.488 493.67 36.464C495.419 35.3973 497.531 34.608 500.006 34.096C502.481 33.5413 505.254 33.264 508.326 33.264C511.313 33.264 514.001 33.5413 516.39 34.096C518.822 34.6507 520.87 35.4613 522.534 36.528C524.241 37.5947 525.521 38.9173 526.374 40.496C527.27 42.0747 527.718 43.9093 527.718 46V46.896H518.886V46.128C518.886 45.0613 518.438 44.144 517.542 43.376C516.646 42.5653 515.43 41.9467 513.894 41.52C512.358 41.0507 510.587 40.816 508.582 40.816C506.065 40.816 503.974 41.008 502.31 41.392C500.689 41.7333 499.473 42.2453 498.662 42.928C497.851 43.6107 497.446 44.4213 497.446 45.36C497.446 46.384 497.894 47.2373 498.79 47.92C499.686 48.56 500.881 49.0933 502.374 49.52C503.867 49.9467 505.553 50.352 507.43 50.736C509.35 51.0773 511.313 51.4827 513.318 51.952C515.323 52.3787 517.265 52.912 519.142 53.552C521.019 54.1493 522.705 54.9387 524.198 55.92C525.734 56.9013 526.929 58.1173 527.782 59.568C528.678 61.0187 529.126 62.7893 529.126 64.88C529.126 68.2507 528.23 70.96 526.438 73.008C524.689 75.0133 522.235 76.4853 519.078 77.424C515.921 78.32 512.294 78.768 508.198 78.768ZM553.817 78.768C549.849 78.768 546.457 78.128 543.641 76.848C540.867 75.5253 538.755 73.5627 537.305 70.96C535.897 68.3573 535.193 65.072 535.193 61.104C535.193 57.136 535.897 53.8507 537.305 51.248C538.755 48.6453 540.867 46.704 543.641 45.424C546.457 44.144 549.849 43.504 553.817 43.504C557.827 43.504 561.219 44.144 563.993 45.424C566.766 46.704 568.878 48.6453 570.329 51.248C571.779 53.8507 572.505 57.136 572.505 61.104C572.505 65.072 571.779 68.3573 570.329 70.96C568.878 73.5627 566.766 75.5253 563.993 76.848C561.219 78.128 557.827 78.768 553.817 78.768ZM553.817 72.112C556.035 72.112 557.891 71.728 559.385 70.96C560.878 70.1493 561.987 68.976 562.713 67.44C563.481 65.8613 563.865 63.9413 563.865 61.68V60.592C563.865 58.288 563.481 56.368 562.713 54.832C561.987 53.2533 560.878 52.08 559.385 51.312C557.891 50.544 556.035 50.16 553.817 50.16C551.598 50.16 549.742 50.544 548.249 51.312C546.755 52.08 545.625 53.2533 544.857 54.832C544.131 56.368 543.769 58.288 543.769 60.592V61.68C543.769 63.9413 544.131 65.8613 544.857 67.44C545.625 68.976 546.755 70.1493 548.249 70.96C549.742 71.728 551.598 72.112 553.817 72.112ZM579.665 78V31.664H587.985V78H579.665Z" fill="#004DFF"/>
</svg>
