<svg width="105" height="114" viewBox="0 0 105 114" fill="none" xmlns="http://www.w3.org/2000/svg">
<path d="M19.7778 81.7907H15C9.47716 81.7907 5 77.3135 5 71.7907V48.5581C5 43.0353 9.47715 38.5581 15 38.5581H22.1429C27.6657 38.5581 32.1429 34.081 32.1429 28.5581V15C32.1429 9.47715 36.62 5 42.1429 5H62.8571C68.38 5 72.8571 9.47715 72.8571 15V47C72.8571 52.5228 68.38 57 62.8571 57H47.2698C41.747 57 37.2698 61.4772 37.2698 67V99C37.2698 104.523 41.747 109 47.2698 109H62.8571C68.38 109 72.8571 104.523 72.8571 99V91.7907C72.8571 86.2679 77.3343 81.7907 82.8571 81.7907H90C95.5229 81.7907 100 77.3135 100 71.7907V52.6895C100 47.1667 95.5229 42.6895 90 42.6895H85.8254" stroke="#004DFF" stroke-width="10"/>
</svg>
