<svg width="569" height="114" viewBox="0 0 569 114" fill="none" xmlns="http://www.w3.org/2000/svg">
<path d="M19.7778 81.7907H15C9.47716 81.7907 5 77.3135 5 71.7907V48.5581C5 43.0353 9.47715 38.5581 15 38.5581H22.1429C27.6657 38.5581 32.1429 34.081 32.1429 28.5581V15C32.1429 9.47715 36.62 5 42.1429 5H62.8571C68.38 5 72.8571 9.47715 72.8571 15V47C72.8571 52.5228 68.38 57 62.8571 57H47.2698C41.747 57 37.2698 61.4772 37.2698 67V99C37.2698 104.523 41.747 109 47.2698 109H62.8571C68.38 109 72.8571 104.523 72.8571 99V91.7907C72.8571 86.2679 77.3343 81.7907 82.8571 81.7907H90C95.5229 81.7907 100 77.3135 100 71.7907V52.6895C100 47.1667 95.5229 42.6895 90 42.6895H85.8254" stroke="#004DFF" stroke-width="10"/>
<path d="M147.208 78.768C145.373 78.768 143.901 78.4693 142.792 77.872C141.683 77.232 140.872 76.3147 140.36 75.12C139.848 73.9253 139.592 72.4747 139.592 70.768V49.2H134.216V44.336H139.72L140.872 34.8H145.544V44.336H153.16V49.2H145.544V69.872C145.544 71.1947 145.757 72.1973 146.184 72.88C146.611 73.5627 147.571 73.904 149.064 73.904H153.16V77.744C152.648 77.9573 152.029 78.128 151.304 78.256C150.621 78.4267 149.917 78.5547 149.192 78.64C148.467 78.7253 147.805 78.768 147.208 78.768ZM175.982 78.768C172.27 78.768 169.112 78.1493 166.51 76.912C163.907 75.632 161.923 73.6907 160.558 71.088C159.192 68.4853 158.51 65.1787 158.51 61.168C158.51 57.2 159.171 53.9147 160.494 51.312C161.859 48.7093 163.843 46.768 166.446 45.488C169.048 44.208 172.227 43.568 175.982 43.568C179.736 43.568 182.851 44.208 185.326 45.488C187.8 46.768 189.656 48.624 190.894 51.056C192.131 53.4453 192.75 56.3467 192.75 59.76V62.704H164.718C164.803 65.392 165.294 67.568 166.19 69.232C167.128 70.896 168.451 72.112 170.158 72.88C171.864 73.6053 173.87 73.968 176.174 73.968C177.752 73.968 179.16 73.776 180.398 73.392C181.635 72.9653 182.702 72.432 183.598 71.792C184.494 71.1093 185.198 70.32 185.71 69.424C186.264 68.528 186.563 67.568 186.606 66.544H192.494C192.451 68.208 192.088 69.7867 191.406 71.28C190.723 72.7307 189.699 74.032 188.333 75.184C186.968 76.2933 185.24 77.168 183.15 77.808C181.102 78.448 178.712 78.768 175.982 78.768ZM164.782 58.288H186.478C186.478 56.4533 186.2 54.9173 185.646 53.68C185.091 52.4 184.323 51.376 183.342 50.608C182.36 49.7973 181.23 49.2213 179.95 48.88C178.712 48.5387 177.347 48.368 175.854 48.368C173.72 48.368 171.843 48.7307 170.222 49.456C168.643 50.1387 167.384 51.2267 166.446 52.72C165.507 54.1707 164.952 56.0267 164.782 58.288ZM200.485 78V31.728H206.437V78H200.485ZM231.607 78.768C227.895 78.768 224.737 78.1493 222.135 76.912C219.532 75.632 217.548 73.6907 216.183 71.088C214.817 68.4853 214.135 65.1787 214.135 61.168C214.135 57.2 214.796 53.9147 216.119 51.312C217.484 48.7093 219.468 46.768 222.071 45.488C224.673 44.208 227.852 43.568 231.607 43.568C235.361 43.568 238.476 44.208 240.951 45.488C243.425 46.768 245.281 48.624 246.519 51.056C247.756 53.4453 248.375 56.3467 248.375 59.76V62.704H220.343C220.428 65.392 220.919 67.568 221.815 69.232C222.753 70.896 224.076 72.112 225.783 72.88C227.489 73.6053 229.495 73.968 231.799 73.968C233.377 73.968 234.785 73.776 236.023 73.392C237.26 72.9653 238.327 72.432 239.223 71.792C240.119 71.1093 240.823 70.32 241.335 69.424C241.889 68.528 242.188 67.568 242.231 66.544H248.119C248.076 68.208 247.713 69.7867 247.031 71.28C246.348 72.7307 245.324 74.032 243.958 75.184C242.593 76.2933 240.865 77.168 238.775 77.808C236.727 78.448 234.337 78.768 231.607 78.768ZM220.407 58.288H242.103C242.103 56.4533 241.825 54.9173 241.271 53.68C240.716 52.4 239.948 51.376 238.967 50.608C237.985 49.7973 236.855 49.2213 235.575 48.88C234.337 48.5387 232.972 48.368 231.479 48.368C229.345 48.368 227.468 48.7307 225.847 49.456C224.268 50.1387 223.009 51.2267 222.071 52.72C221.132 54.1707 220.577 56.0267 220.407 58.288ZM257.646 78V34.096H264.174V52.72H292.526V34.096H299.054V78H292.526V58.416H264.174V78H257.646ZM325.732 78.768C322.02 78.768 318.862 78.1493 316.26 76.912C313.657 75.632 311.673 73.6907 310.308 71.088C308.942 68.4853 308.26 65.1787 308.26 61.168C308.26 57.2 308.921 53.9147 310.244 51.312C311.609 48.7093 313.593 46.768 316.196 45.488C318.798 44.208 321.977 43.568 325.732 43.568C329.486 43.568 332.601 44.208 335.076 45.488C337.55 46.768 339.406 48.624 340.644 51.056C341.881 53.4453 342.5 56.3467 342.5 59.76V62.704H314.468C314.553 65.392 315.044 67.568 315.94 69.232C316.878 70.896 318.201 72.112 319.908 72.88C321.614 73.6053 323.62 73.968 325.924 73.968C327.502 73.968 328.91 73.776 330.148 73.392C331.385 72.9653 332.452 72.432 333.348 71.792C334.244 71.1093 334.948 70.32 335.46 69.424C336.014 68.528 336.313 67.568 336.356 66.544H342.244C342.201 68.208 341.838 69.7867 341.156 71.28C340.473 72.7307 339.449 74.032 338.083 75.184C336.718 76.2933 334.99 77.168 332.9 77.808C330.852 78.448 328.462 78.768 325.732 78.768ZM314.532 58.288H336.228C336.228 56.4533 335.95 54.9173 335.396 53.68C334.841 52.4 334.073 51.376 333.092 50.608C332.11 49.7973 330.98 49.2213 329.7 48.88C328.462 48.5387 327.097 48.368 325.604 48.368C323.47 48.368 321.593 48.7307 319.972 49.456C318.393 50.1387 317.134 51.2267 316.196 52.72C315.257 54.1707 314.702 56.0267 314.532 58.288ZM360.667 78.768C359.088 78.768 357.573 78.5973 356.123 78.256C354.672 77.9573 353.349 77.4667 352.155 76.784C351.003 76.0587 350.085 75.0987 349.403 73.904C348.763 72.6667 348.443 71.1307 348.443 69.296C348.443 66.7787 349.104 64.7733 350.427 63.28C351.749 61.744 353.584 60.6133 355.931 59.888C358.32 59.12 361.093 58.6293 364.251 58.416C367.451 58.16 370.907 58.032 374.619 58.032V55.152C374.619 53.5733 374.32 52.2933 373.723 51.312C373.168 50.288 372.208 49.5413 370.843 49.072C369.477 48.6027 367.557 48.368 365.083 48.368C362.949 48.368 361.2 48.6027 359.835 49.072C358.469 49.4987 357.467 50.096 356.827 50.864C356.187 51.5893 355.867 52.4 355.867 53.296V54.384H350.043C350 54.1707 349.979 53.9787 349.979 53.808C349.979 53.5947 349.979 53.3387 349.979 53.04C349.979 51.0347 350.597 49.328 351.835 47.92C353.072 46.4693 354.864 45.3813 357.211 44.656C359.557 43.9307 362.373 43.568 365.659 43.568C368.944 43.568 371.675 43.952 373.851 44.72C376.069 45.488 377.733 46.6613 378.843 48.24C379.995 49.8187 380.571 51.8667 380.571 54.384V71.536C380.571 72.3893 380.741 73.008 381.083 73.392C381.424 73.7333 381.936 73.904 382.619 73.904H385.499V77.808C384.859 78.0213 384.112 78.2133 383.259 78.384C382.448 78.5973 381.573 78.704 380.635 78.704C379.269 78.704 378.181 78.4693 377.371 78C376.603 77.5307 376.027 76.8693 375.643 76.016C375.301 75.1627 375.067 74.224 374.939 73.2H374.491C373.509 74.352 372.293 75.3547 370.843 76.208C369.392 77.0613 367.792 77.7013 366.043 78.128C364.336 78.5547 362.544 78.768 360.667 78.768ZM361.947 73.904C363.483 73.904 364.997 73.6907 366.491 73.264C367.984 72.8373 369.328 72.24 370.523 71.472C371.76 70.704 372.741 69.7867 373.467 68.72C374.235 67.6107 374.619 66.3947 374.619 65.072V62.32C370.267 62.32 366.597 62.512 363.611 62.896C360.624 63.2373 358.363 63.8987 356.827 64.88C355.333 65.8187 354.587 67.2053 354.587 69.04C354.587 70.2347 354.907 71.1947 355.547 71.92C356.229 72.6027 357.125 73.1147 358.235 73.456C359.387 73.7547 360.624 73.904 361.947 73.904ZM390.36 78V31.728H396.312V78H390.36ZM415.146 78.768C413.311 78.768 411.839 78.4693 410.73 77.872C409.62 77.232 408.81 76.3147 408.298 75.12C407.786 73.9253 407.53 72.4747 407.53 70.768V49.2H402.154V44.336H407.658L408.81 34.8H413.482V44.336H421.098V49.2H413.482V69.872C413.482 71.1947 413.695 72.1973 414.122 72.88C414.548 73.5627 415.508 73.904 417.002 73.904H421.098V77.744C420.586 77.9573 419.967 78.128 419.242 78.256C418.559 78.4267 417.855 78.5547 417.13 78.64C416.404 78.7253 415.743 78.768 415.146 78.768ZM428.047 78V31.728H433.999V49.008H434.383C435.45 47.6427 436.623 46.576 437.903 45.808C439.226 44.9973 440.612 44.4213 442.063 44.08C443.556 43.7387 445.071 43.568 446.607 43.568C449.21 43.568 451.428 43.9733 453.263 44.784C455.098 45.5947 456.506 46.8747 457.487 48.624C458.468 50.3733 458.959 52.6987 458.959 55.6V78H452.943V56.56C452.943 54.9387 452.73 53.616 452.303 52.592C451.919 51.568 451.364 50.7787 450.639 50.224C449.914 49.6693 449.039 49.2853 448.015 49.072C446.991 48.816 445.86 48.688 444.623 48.688C442.831 48.688 441.103 49.0933 439.439 49.904C437.818 50.7147 436.495 51.8667 435.471 53.36C434.49 54.8533 433.999 56.6667 433.999 58.8V78H428.047ZM487.89 78.768C485.117 78.768 482.471 78.5547 479.954 78.128C477.437 77.7013 475.218 76.9973 473.298 76.016C471.378 74.992 469.842 73.6267 468.69 71.92C467.581 70.1707 467.026 67.9947 467.026 65.392C467.026 65.136 467.026 64.9227 467.026 64.752C467.069 64.5387 467.09 64.368 467.09 64.24H473.618C473.618 64.4107 473.597 64.6453 473.554 64.944C473.554 65.2 473.554 65.4773 473.554 65.776C473.554 67.3973 474.13 68.784 475.282 69.936C476.434 71.0453 478.077 71.8773 480.21 72.432C482.386 72.9867 484.882 73.264 487.698 73.264C488.978 73.264 490.279 73.2 491.602 73.072C492.925 72.9013 494.162 72.6667 495.314 72.368C496.509 72.0267 497.554 71.6 498.45 71.088C499.389 70.5333 500.114 69.872 500.626 69.104C501.181 68.2933 501.458 67.3547 501.458 66.288C501.458 64.8373 500.989 63.664 500.05 62.768C499.154 61.8293 497.917 61.0827 496.338 60.528C494.759 59.9307 492.967 59.4187 490.962 58.992C488.999 58.5653 486.973 58.1387 484.882 57.712C482.791 57.2853 480.743 56.7733 478.738 56.176C476.775 55.5787 475.005 54.832 473.426 53.936C471.847 53.04 470.589 51.888 469.65 50.48C468.754 49.0293 468.306 47.2587 468.306 45.168C468.306 43.376 468.69 41.7547 469.458 40.304C470.269 38.8533 471.485 37.616 473.106 36.592C474.727 35.5253 476.754 34.7147 479.186 34.16C481.661 33.6053 484.583 33.328 487.954 33.328C491.026 33.328 493.714 33.6267 496.018 34.224C498.365 34.7787 500.327 35.5893 501.906 36.656C503.485 37.7227 504.658 39.0027 505.426 40.496C506.237 41.9893 506.642 43.6533 506.642 45.488V46.512H500.178V45.424C500.178 44.144 499.687 43.0133 498.706 42.032C497.725 41.0507 496.338 40.2827 494.546 39.728C492.797 39.1307 490.706 38.832 488.274 38.832C485.287 38.832 482.813 39.088 480.85 39.6C478.887 40.0693 477.415 40.752 476.434 41.648C475.453 42.544 474.962 43.5893 474.962 44.784C474.962 46.1067 475.41 47.1947 476.306 48.048C477.245 48.8587 478.503 49.5413 480.082 50.096C481.661 50.608 483.431 51.0773 485.394 51.504C487.399 51.888 489.447 52.2933 491.538 52.72C493.629 53.1467 495.655 53.6587 497.618 54.256C499.623 54.8533 501.415 55.6213 502.994 56.56C504.573 57.4987 505.831 58.6933 506.77 60.144C507.709 61.552 508.178 63.3013 508.178 65.392C508.178 68.6347 507.303 71.2373 505.554 73.2C503.847 75.1627 501.458 76.592 498.386 77.488C495.357 78.3413 491.858 78.768 487.89 78.768ZM532.483 78.768C528.686 78.768 525.486 78.128 522.883 76.848C520.28 75.5253 518.296 73.5627 516.931 70.96C515.608 68.3573 514.947 65.0933 514.947 61.168C514.947 57.2 515.608 53.9147 516.931 51.312C518.296 48.7093 520.28 46.768 522.883 45.488C525.486 44.208 528.686 43.568 532.483 43.568C536.28 43.568 539.459 44.208 542.019 45.488C544.622 46.768 546.584 48.7093 547.907 51.312C549.272 53.9147 549.955 57.2 549.955 61.168C549.955 65.0933 549.272 68.3573 547.907 70.96C546.584 73.5627 544.622 75.5253 542.019 76.848C539.459 78.128 536.28 78.768 532.483 78.768ZM532.483 73.904C534.83 73.904 536.835 73.4773 538.499 72.624C540.206 71.7707 541.507 70.448 542.403 68.656C543.299 66.864 543.747 64.5813 543.747 61.808V60.464C543.747 57.648 543.299 55.3653 542.403 53.616C541.507 51.8667 540.206 50.5653 538.499 49.712C536.835 48.8587 534.83 48.432 532.483 48.432C530.136 48.432 528.11 48.8587 526.403 49.712C524.696 50.5653 523.395 51.8667 522.499 53.616C521.603 55.3653 521.155 57.648 521.155 60.464V61.808C521.155 64.5813 521.603 66.864 522.499 68.656C523.395 70.448 524.696 71.7707 526.403 72.624C528.11 73.4773 530.136 73.904 532.483 73.904ZM557.735 78V31.728H563.687V78H557.735Z" fill="#004DFF"/>
</svg>
